<svg xmlns="http://www.w3.org/2000/svg" viewBox="0 5.222 141.3 130.8">
  <path d="M77.955 109.975
							c-4.037 0-7.309 3.271-7.309 7.308
							s3.272 7.31 7.309 7.31
							h56.029
							c4.037 0 7.309-3.271 7.309-7.31 0-4.036-3.271-7.308-7.309-7.308
							H77.955
							zM0 44.2
							c0 4.037 3.272 7.308 7.309 7.308
							h19.489
							v19.49
							c0 4.036 3.271 7.309 7.308 7.309
							s7.309-3.271 7.309-7.309
							v-19.49
							H63.34
							c4.037 0 7.308-3.271 7.308-7.308
							s-3.271-7.309-7.308-7.309
							H41.414
							V12.53
							c0-4.037-3.272-7.308-7.309-7.308-4.037 0-7.308 3.271-7.308 7.308v24.361H7.308C3.272 36.892 0 40.164 0 44.2zM131.428 17.261c-2.854-2.855-7.481-2.855-10.336 0L14.763 123.594c-2.853 2.854-2.853 7.481 0 10.334 1.425 1.429 3.298 2.143 5.167 2.143 1.868 0 3.742-.714 5.169-2.143L131.428 27.599c2.855-2.853 2.855-7.485 0-10.338z" fill="#000000"/>
</svg>